# xmcd
#
# Track frame offsets:
#        150
#        16318
#        33745
#        50948
#        66495
#        82505
#        99000
#        114345
#        131210
#        148040
#        161883
#        177523
#        190728
#        210115
#        225710
#        248103
#
# Disc length: 3505 seconds
#
# Revision: 0
# Processed by: cddbd v1.5.1PL2 Copyright (c) Steve Scherf et al.
# Submitted via: ExactAudioCopy v0.95b3
#
DISCID=da0daf10
DTITLE=Ms. Thing - Miss Jamaica
DYEAR=2004
DGENRE=Reggae
TTITLE0=Regular
TTITLE1=I Want It All
TTITLE2=Hot
TTITLE3=Jump Up and Rail
TTITLE4=Get That Money
TTITLE5=Rich and Famous
TTITLE6=Anyweh
TTITLE7=Ms. Thing and The Doctor feat. Beenie Man
TTITLE8=It Haffi Good feat. Vybz Kartel
TTITLE9=Muscle Tight
TTITLE10=Modeling feat. Alanna Leslie
TTITLE11=Grudge You
TTITLE12=Love Guide feat. Switch
TTITLE13=Sweet Soca Music by Sugar Daddy feat. Ms. Thing
TTITLE14=Hotter Than Hot
TTITLE15=Pum Pum
EXTD=
EXTT0=
EXTT1=
EXTT2=
EXTT3=
EXTT4=
EXTT5=
EXTT6=
EXTT7=
EXTT8=
EXTT9=
EXTT10=
EXTT11=
EXTT12=
EXTT13=
EXTT14=
EXTT15=
PLAYORDER=
